<svg width="46" height="46" viewBox="0 0 46 46" fill="none" xmlns="http://www.w3.org/2000/svg">
<g id="&#240;&#159;&#166;&#134; icon &#34;User Circle&#34;">
<path id="Vector" d="M22.6178 0C10.1233 0 0 10.1233 0 22.6178C0 35.1123 10.1233 45.2356 22.6178 45.2356C35.1123 45.2356 45.2356 35.1123 45.2356 22.6178C45.2356 10.1233 35.1123 0 22.6178 0ZM22.6178 8.75528C27.0502 8.75528 30.6435 12.3486 30.6435 16.781C30.6435 21.2133 27.0502 24.8066 22.6178 24.8066C18.1855 24.8066 14.5921 21.2133 14.5921 16.781C14.5921 12.3486 18.1855 8.75528 22.6178 8.75528ZM22.6178 40.1284C17.2643 40.1284 12.4672 37.7024 9.25689 33.9085C10.9715 30.68 14.3277 28.4547 18.2402 28.4547C18.4591 28.4547 18.6779 28.4912 18.8877 28.555C20.0733 28.938 21.3136 29.1843 22.6178 29.1843C23.922 29.1843 25.1714 28.938 26.3479 28.555C26.5577 28.4912 26.7766 28.4547 26.9955 28.4547C30.908 28.4547 34.2642 30.68 35.9787 33.9085C32.7685 37.7024 27.9713 40.1284 22.6178 40.1284Z" fill="black"/>
</g>
</svg>
